<svg width="182" height="31" viewBox="0 0 182 31" fill="none" xmlns="http://www.w3.org/2000/svg">
<g filter="url(#filter0_d_1_2)">
<path d="M7.84473 0.671875V22H4.16797V0.671875H7.84473ZM20.6621 0.671875L12.0195 10.9404L7.09766 16.1553L6.45312 12.5078L9.96875 8.17188L16.1797 0.671875H20.6621ZM16.707 22L9.69043 11.8926L12.2246 9.3877L21.0723 22H16.707ZM32.307 18.8213V11.2627C32.307 10.6963 32.2045 10.208 31.9994 9.79785C31.7943 9.3877 31.4818 9.07031 31.0619 8.8457C30.6518 8.62109 30.1342 8.50879 29.5092 8.50879C28.933 8.50879 28.435 8.60645 28.015 8.80176C27.5951 8.99707 27.268 9.26074 27.0336 9.59277C26.7992 9.9248 26.682 10.3008 26.682 10.7207H23.1664C23.1664 10.0957 23.3178 9.49023 23.6205 8.9043C23.9232 8.31836 24.3627 7.7959 24.9389 7.33691C25.515 6.87793 26.2035 6.5166 27.0043 6.25293C27.8051 5.98926 28.7035 5.85742 29.6996 5.85742C30.891 5.85742 31.9457 6.05762 32.8637 6.45801C33.7914 6.8584 34.5189 7.46387 35.0463 8.27441C35.5834 9.0752 35.852 10.0811 35.852 11.292V18.3379C35.852 19.0605 35.9008 19.71 35.9984 20.2861C36.1059 20.8525 36.2572 21.3457 36.4525 21.7656V22H32.8344C32.6684 21.6191 32.5365 21.1357 32.4389 20.5498C32.351 19.9541 32.307 19.3779 32.307 18.8213ZM32.8197 12.3613L32.849 14.5439H30.3148C29.6605 14.5439 29.0844 14.6074 28.5863 14.7344C28.0883 14.8516 27.6732 15.0273 27.3412 15.2617C27.0092 15.4961 26.7602 15.7793 26.5941 16.1113C26.4281 16.4434 26.3451 16.8193 26.3451 17.2393C26.3451 17.6592 26.4428 18.0449 26.6381 18.3965C26.8334 18.7383 27.1166 19.0068 27.4877 19.2021C27.8686 19.3975 28.3275 19.4951 28.8646 19.4951C29.5873 19.4951 30.2172 19.3486 30.7543 19.0557C31.3012 18.7529 31.7309 18.3867 32.0434 17.957C32.3559 17.5176 32.5219 17.1025 32.5414 16.7119L33.684 18.2793C33.5668 18.6797 33.3666 19.1094 33.0834 19.5684C32.8002 20.0273 32.4291 20.4668 31.9701 20.8867C31.5209 21.2969 30.9789 21.6338 30.3441 21.8975C29.7191 22.1611 28.9965 22.293 28.1762 22.293C27.141 22.293 26.2182 22.0879 25.4076 21.6777C24.5971 21.2578 23.9623 20.6963 23.5033 19.9932C23.0443 19.2803 22.8148 18.4746 22.8148 17.5762C22.8148 16.7363 22.9711 15.9941 23.2836 15.3496C23.6059 14.6953 24.0746 14.1484 24.6898 13.709C25.3148 13.2695 26.0766 12.9375 26.975 12.7129C27.8734 12.4785 28.8988 12.3613 30.0512 12.3613H32.8197ZM47.409 6.15039V8.72852H38.4734V6.15039H47.409ZM41.0516 2.26855H44.5818V17.6201C44.5818 18.1084 44.6502 18.4844 44.7869 18.748C44.9334 19.002 45.1336 19.1729 45.3875 19.2607C45.6414 19.3486 45.9393 19.3926 46.2811 19.3926C46.5252 19.3926 46.7596 19.3779 46.9842 19.3486C47.2088 19.3193 47.3895 19.29 47.5262 19.2607L47.5408 21.9561C47.2479 22.0439 46.9061 22.1221 46.5154 22.1904C46.1346 22.2588 45.6951 22.293 45.1971 22.293C44.3865 22.293 43.6688 22.1514 43.0438 21.8682C42.4188 21.5752 41.9305 21.1016 41.5789 20.4473C41.2273 19.793 41.0516 18.9238 41.0516 17.8398V2.26855ZM54.5129 6.15039V22H50.968V6.15039H54.5129ZM50.7336 1.99023C50.7336 1.45312 50.9094 1.00879 51.2609 0.657227C51.6223 0.295898 52.1203 0.115234 52.7551 0.115234C53.3801 0.115234 53.8732 0.295898 54.2346 0.657227C54.5959 1.00879 54.7766 1.45312 54.7766 1.99023C54.7766 2.51758 54.5959 2.95703 54.2346 3.30859C53.8732 3.66016 53.3801 3.83594 52.7551 3.83594C52.1203 3.83594 51.6223 3.66016 51.2609 3.30859C50.9094 2.95703 50.7336 2.51758 50.7336 1.99023ZM65.9674 22.293C64.7955 22.293 63.7359 22.1025 62.7887 21.7217C61.8512 21.3311 61.0504 20.7891 60.3863 20.0957C59.732 19.4023 59.2291 18.5869 58.8775 17.6494C58.526 16.7119 58.3502 15.7012 58.3502 14.6172V14.0312C58.3502 12.791 58.5309 11.668 58.8922 10.6621C59.2535 9.65625 59.7564 8.79688 60.401 8.08398C61.0455 7.36133 61.8072 6.80957 62.6861 6.42871C63.565 6.04785 64.5172 5.85742 65.5426 5.85742C66.6754 5.85742 67.6666 6.04785 68.5162 6.42871C69.3658 6.80957 70.0689 7.34668 70.6256 8.04004C71.192 8.72363 71.6119 9.53906 71.8854 10.4863C72.1686 11.4336 72.3102 12.4785 72.3102 13.6211V15.1299H60.0641V12.5957H68.8238V12.3174C68.8043 11.6826 68.6773 11.0869 68.443 10.5303C68.2184 9.97363 67.8717 9.52441 67.4029 9.18262C66.9342 8.84082 66.3092 8.66992 65.5279 8.66992C64.942 8.66992 64.4195 8.79688 63.9605 9.05078C63.5113 9.29492 63.1354 9.65137 62.8326 10.1201C62.5299 10.5889 62.2955 11.1553 62.1295 11.8193C61.9732 12.4736 61.8951 13.2109 61.8951 14.0312V14.6172C61.8951 15.3105 61.9879 15.9551 62.1734 16.5508C62.3688 17.1367 62.652 17.6494 63.023 18.0889C63.3941 18.5283 63.8434 18.875 64.3707 19.1289C64.898 19.373 65.4986 19.4951 66.1725 19.4951C67.0221 19.4951 67.7789 19.3242 68.443 18.9824C69.107 18.6406 69.6832 18.1572 70.1715 17.5322L72.0318 19.334C71.69 19.832 71.2457 20.3105 70.6988 20.7695C70.152 21.2188 69.483 21.585 68.692 21.8682C67.9107 22.1514 67.0025 22.293 65.9674 22.293ZM101.005 0.671875V22H97.3285L87.7631 6.72168V22H84.0863V0.671875H87.7631L97.3578 15.9795V0.671875H101.005ZM115.17 18.2646V6.15039H118.715V22H115.375L115.17 18.2646ZM115.668 14.9688L116.854 14.9395C116.854 16.0039 116.737 16.9854 116.503 17.8838C116.268 18.7725 115.907 19.5488 115.419 20.2129C114.93 20.8672 114.305 21.3799 113.544 21.751C112.782 22.1123 111.869 22.293 110.804 22.293C110.033 22.293 109.325 22.1807 108.68 21.9561C108.036 21.7314 107.479 21.3848 107.011 20.916C106.552 20.4473 106.195 19.8369 105.941 19.085C105.687 18.333 105.56 17.4346 105.56 16.3896V6.15039H109.091V16.4189C109.091 16.9951 109.159 17.4785 109.296 17.8691C109.432 18.25 109.618 18.5576 109.852 18.792C110.087 19.0264 110.36 19.1924 110.673 19.29C110.985 19.3877 111.317 19.4365 111.669 19.4365C112.675 19.4365 113.466 19.2412 114.042 18.8506C114.628 18.4502 115.043 17.9131 115.287 17.2393C115.541 16.5654 115.668 15.8086 115.668 14.9688ZM129.407 19.4805C129.984 19.4805 130.501 19.3682 130.96 19.1436C131.429 18.9092 131.805 18.5869 132.088 18.1768C132.381 17.7666 132.542 17.293 132.571 16.7559H135.897C135.877 17.7812 135.574 18.7139 134.988 19.5537C134.403 20.3936 133.626 21.0625 132.659 21.5605C131.693 22.0488 130.623 22.293 129.451 22.293C128.24 22.293 127.186 22.0879 126.287 21.6777C125.389 21.2578 124.642 20.6816 124.046 19.9492C123.45 19.2168 123.001 18.3721 122.698 17.415C122.405 16.458 122.259 15.4326 122.259 14.3389V13.8262C122.259 12.7324 122.405 11.707 122.698 10.75C123.001 9.7832 123.45 8.93359 124.046 8.20117C124.642 7.46875 125.389 6.89746 126.287 6.4873C127.186 6.06738 128.236 5.85742 129.437 5.85742C130.706 5.85742 131.82 6.11133 132.777 6.61914C133.734 7.11719 134.486 7.81543 135.032 8.71387C135.589 9.60254 135.877 10.6377 135.897 11.8193H132.571C132.542 11.2334 132.396 10.7061 132.132 10.2373C131.878 9.75879 131.517 9.37793 131.048 9.09473C130.589 8.81152 130.037 8.66992 129.393 8.66992C128.68 8.66992 128.089 8.81641 127.62 9.10938C127.152 9.39258 126.785 9.7832 126.522 10.2812C126.258 10.7695 126.068 11.3213 125.95 11.9365C125.843 12.542 125.789 13.1719 125.789 13.8262V14.3389C125.789 14.9932 125.843 15.6279 125.95 16.2432C126.058 16.8584 126.243 17.4102 126.507 17.8984C126.78 18.377 127.152 18.7627 127.62 19.0557C128.089 19.3389 128.685 19.4805 129.407 19.4805ZM145.681 19.4805C146.257 19.4805 146.775 19.3682 147.234 19.1436C147.703 18.9092 148.079 18.5869 148.362 18.1768C148.655 17.7666 148.816 17.293 148.845 16.7559H152.171C152.151 17.7812 151.848 18.7139 151.262 19.5537C150.676 20.3936 149.9 21.0625 148.933 21.5605C147.966 22.0488 146.897 22.293 145.725 22.293C144.514 22.293 143.46 22.0879 142.561 21.6777C141.663 21.2578 140.916 20.6816 140.32 19.9492C139.724 19.2168 139.275 18.3721 138.972 17.415C138.679 16.458 138.533 15.4326 138.533 14.3389V13.8262C138.533 12.7324 138.679 11.707 138.972 10.75C139.275 9.7832 139.724 8.93359 140.32 8.20117C140.916 7.46875 141.663 6.89746 142.561 6.4873C143.46 6.06738 144.509 5.85742 145.711 5.85742C146.98 5.85742 148.093 6.11133 149.05 6.61914C150.007 7.11719 150.759 7.81543 151.306 8.71387C151.863 9.60254 152.151 10.6377 152.171 11.8193H148.845C148.816 11.2334 148.67 10.7061 148.406 10.2373C148.152 9.75879 147.791 9.37793 147.322 9.09473C146.863 8.81152 146.311 8.66992 145.667 8.66992C144.954 8.66992 144.363 8.81641 143.894 9.10938C143.425 9.39258 143.059 9.7832 142.796 10.2812C142.532 10.7695 142.341 11.3213 142.224 11.9365C142.117 12.542 142.063 13.1719 142.063 13.8262V14.3389C142.063 14.9932 142.117 15.6279 142.224 16.2432C142.332 16.8584 142.517 17.4102 142.781 17.8984C143.054 18.377 143.425 18.7627 143.894 19.0557C144.363 19.3389 144.959 19.4805 145.681 19.4805ZM159.26 6.15039V22H155.715V6.15039H159.26ZM155.48 1.99023C155.48 1.45312 155.656 1.00879 156.008 0.657227C156.369 0.295898 156.867 0.115234 157.502 0.115234C158.127 0.115234 158.62 0.295898 158.981 0.657227C159.343 1.00879 159.523 1.45312 159.523 1.99023C159.523 2.51758 159.343 2.95703 158.981 3.30859C158.62 3.66016 158.127 3.83594 157.502 3.83594C156.867 3.83594 156.369 3.66016 156.008 3.30859C155.656 2.95703 155.48 2.51758 155.48 1.99023ZM163.053 14.251V13.9141C163.053 12.7715 163.219 11.7119 163.551 10.7354C163.883 9.74902 164.362 8.89453 164.987 8.17188C165.621 7.43945 166.393 6.87305 167.301 6.47266C168.219 6.0625 169.254 5.85742 170.407 5.85742C171.569 5.85742 172.604 6.0625 173.512 6.47266C174.43 6.87305 175.206 7.43945 175.841 8.17188C176.476 8.89453 176.959 9.74902 177.291 10.7354C177.623 11.7119 177.789 12.7715 177.789 13.9141V14.251C177.789 15.3936 177.623 16.4531 177.291 17.4297C176.959 18.4062 176.476 19.2607 175.841 19.9932C175.206 20.7158 174.435 21.2822 173.527 21.6924C172.619 22.0928 171.588 22.293 170.436 22.293C169.274 22.293 168.234 22.0928 167.316 21.6924C166.408 21.2822 165.636 20.7158 165.001 19.9932C164.367 19.2607 163.883 18.4062 163.551 17.4297C163.219 16.4531 163.053 15.3936 163.053 14.251ZM166.583 13.9141V14.251C166.583 14.9639 166.657 15.6377 166.803 16.2725C166.95 16.9072 167.179 17.4639 167.492 17.9424C167.804 18.4209 168.204 18.7969 168.693 19.0703C169.181 19.3438 169.762 19.4805 170.436 19.4805C171.09 19.4805 171.657 19.3438 172.135 19.0703C172.623 18.7969 173.024 18.4209 173.336 17.9424C173.649 17.4639 173.878 16.9072 174.025 16.2725C174.181 15.6377 174.259 14.9639 174.259 14.251V13.9141C174.259 13.2109 174.181 12.5469 174.025 11.9219C173.878 11.2871 173.644 10.7256 173.322 10.2373C173.009 9.74902 172.609 9.36816 172.121 9.09473C171.642 8.81152 171.071 8.66992 170.407 8.66992C169.743 8.66992 169.166 8.81152 168.678 9.09473C168.2 9.36816 167.804 9.74902 167.492 10.2373C167.179 10.7256 166.95 11.2871 166.803 11.9219C166.657 12.5469 166.583 13.2109 166.583 13.9141Z" fill="#F02E65"/>
</g>
<defs>
<filter id="filter0_d_1_2" x="0.167969" y="0.115234" width="181.621" height="30.1777" filterUnits="userSpaceOnUse" color-interpolation-filters="sRGB">
<feFlood flood-opacity="0" result="BackgroundImageFix"/>
<feColorMatrix in="SourceAlpha" type="matrix" values="0 0 0 0 0 0 0 0 0 0 0 0 0 0 0 0 0 0 127 0" result="hardAlpha"/>
<feOffset dy="4"/>
<feGaussianBlur stdDeviation="2"/>
<feComposite in2="hardAlpha" operator="out"/>
<feColorMatrix type="matrix" values="0 0 0 0 0 0 0 0 0 0 0 0 0 0 0 0 0 0 0.08 0"/>
<feBlend mode="normal" in2="BackgroundImageFix" result="effect1_dropShadow_1_2"/>
<feBlend mode="normal" in="SourceGraphic" in2="effect1_dropShadow_1_2" result="shape"/>
</filter>
</defs>
</svg>
